# xmcd
#
# Track frame offsets: 
#        150
#        13322
#        23660
#        33592
#        45896
#        58518
#        70296
#        82371
#        96500
#        107239
#        123264
#        134686
#        147109
#        159060
#        170906
#        180717
#        194910
#        205665
#        219727
#        231052
#        243620
#        254974
#        265595
#        276320
#        287440
#
# Disc length: 4002 seconds
#
# Revision: 0
# Processed by: cddbd v1.5.2PL0 Copyright (c) Steve Scherf et al.
# Submitted via: ExactAudioCopy v1.0b3
#
DISCID=860fa019
DTITLE=Johnny Horton - The Ballads Of
DYEAR=1900
DGENRE=Country
TTITLE0=Whispering Pines
TTITLE1=Everytime I'm Kissing You
TTITLE2=You Cry In The Door Of Your Mansion
TTITLE3=Words (1)
TTITLE4=All For The Love Of A Girl (2)
TTITLE5=Lost Highway
TTITLE6=Journey With No End
TTITLE7=The Mansion You Stole (1)
TTITLE8=Betty Lorraine (Betty Lou)
TTITLE9=Miss Marcy (Billy Boy)
TTITLE10=Words (2)
TTITLE11=Another Woman Wears My Wedding Ring
TTITLE12=Shadows On The Old Bayou
TTITLE13=When It's Springtime In Alaska (It's Forty Below)
TTITLE14=Counterfeit Love
TTITLE15=Comanche (The Brave Horse)
TTITLE16=The Mansion You Stole (1)
TTITLE17=They'll Never Take Her Love From Me
TTITLE18=Jim Bridger
TTITLE19=Done Rovin'
TTITLE20=All For The Love Of A Girl (1)
TTITLE21=Johnny Reb
TTITLE22=Meant So Little To You
TTITLE23=Tetched In The Head
TTITLE24=North To Alaska
EXTD=
EXTT0=
EXTT1=
EXTT2=
EXTT3=
EXTT4=
EXTT5=
EXTT6=
EXTT7=
EXTT8=
EXTT9=
EXTT10=
EXTT11=
EXTT12=
EXTT13=
EXTT14=
EXTT15=
EXTT16=
EXTT17=
EXTT18=
EXTT19=
EXTT20=
EXTT21=
EXTT22=
EXTT23=
EXTT24=
PLAYORDER=
